<svg width="50" height="45" viewBox="0 0 50 45" fill="none" xmlns="http://www.w3.org/2000/svg">
<path fill-rule="evenodd" clip-rule="evenodd" d="M10 43.5H15.5V40.5H33V43.5H38.5V32L37.5 29.5H39.5V27H36L32.5 21H17L13 27H9.5V29.5H12L10 32V43.5ZM35.5 30.5H13.5L18.5 22.5H31.5L35.5 30.5ZM19 34H14V38H19V34ZM35 34H30V38H35V34Z" fill="#8A0E0C"/>
<path fill-rule="evenodd" clip-rule="evenodd" d="M47 6C47 4.89543 46.1046 4 45 4H5C3.89543 4 3 4.89543 3 6V45H7V20C7 18.8954 7.89543 18 9 18H41C42.1046 18 43 18.8954 43 20V45H47V6ZM7 16.5C7 16.2239 7.22386 16 7.5 16H42.5C42.7761 16 43 16.2239 43 16.5V16.5C43 16.7761 42.7761 17 42.5 17H7.5C7.22386 17 7 16.7761 7 16.5V16.5ZM43 14.5C43 14.2239 42.7761 14 42.5 14H7.5C7.22386 14 7 14.2239 7 14.5V14.5C7 14.7761 7.22386 15 7.5 15H42.5C42.7761 15 43 14.7761 43 14.5V14.5ZM7 12.5C7 12.2239 7.22386 12 7.5 12H42.5C42.7761 12 43 12.2239 43 12.5V12.5C43 12.7761 42.7761 13 42.5 13H7.5C7.22386 13 7 12.7761 7 12.5V12.5ZM43 10.5C43 10.2239 42.7761 10 42.5 10H7.5C7.22386 10 7 10.2239 7 10.5V10.5C7 10.7761 7.22386 11 7.5 11H42.5C42.7761 11 43 10.7761 43 10.5V10.5Z" fill="#8A0E0C"/>
</svg>
